<?xml version="1.0" encoding="UTF-8" standalone="no"?>
<!-- Created with Inkscape (http://www.inkscape.org/) -->

<svg
   width="299.18942mm"
   height="133.72122mm"
   viewBox="0 0 299.18943 133.72122"
   version="1.1"
   id="svg1"
   xml:space="preserve"
   inkscape:version="1.4.4 (1:1.4.4+202605061436+dcaf3e7d9e)"
   sodipodi:docname="differential_positioning.svg"
   xmlns:inkscape="http://www.inkscape.org/namespaces/inkscape"
   xmlns:sodipodi="http://sodipodi.sourceforge.net/DTD/sodipodi-0.dtd"
   xmlns:xlink="http://www.w3.org/1999/xlink"
   xmlns="http://www.w3.org/2000/svg"
   xmlns:svg="http://www.w3.org/2000/svg"><sodipodi:namedview
     id="namedview1"
     pagecolor="#ffffff"
     bordercolor="#000000"
     borderopacity="0.25"
     inkscape:showpageshadow="2"
     inkscape:pageopacity="0.0"
     inkscape:pagecheckerboard="0"
     inkscape:deskcolor="#d1d1d1"
     inkscape:document-units="mm"
     showgrid="true"
     inkscape:zoom="0.79687709"
     inkscape:cx="744.78236"
     inkscape:cy="308.07762"
     inkscape:window-width="1920"
     inkscape:window-height="1011"
     inkscape:window-x="0"
     inkscape:window-y="0"
     inkscape:window-maximized="1"
     inkscape:current-layer="layer1"><inkscape:grid
       id="grid1"
       units="mm"
       originx="-22.77639"
       originy="-55.477001"
       spacingx="0.26458334"
       spacingy="0.26458333"
       empcolor="#0099e5"
       empopacity="0.30196078"
       color="#0099e5"
       opacity="0.14901961"
       empspacing="5"
       enabled="true"
       visible="true" /></sodipodi:namedview><defs
     id="defs1"><marker
       style="overflow:visible"
       id="RoundedArrow"
       refX="0"
       refY="0"
       orient="auto-start-reverse"
       inkscape:stockid="Rounded arrow"
       markerWidth="1"
       markerHeight="1"
       viewBox="0 0 1 1"
       inkscape:isstock="true"
       inkscape:collect="always"
       preserveAspectRatio="xMidYMid"><path
         transform="scale(0.7)"
         d="m -0.21114562,-4.1055728 6.42229122,3.21114561 a 1,1 90 0 1 0,1.78885438 L -0.21114562,4.1055728 A 1.236068,1.236068 31.717474 0 1 -2,3 v -6 a 1.236068,1.236068 148.28253 0 1 1.78885438,-1.1055728 z"
         style="fill:context-stroke;fill-rule:evenodd;stroke:none"
         id="path2" /></marker><filter
       style="color-interpolation-filters:sRGB"
       inkscape:label="Colorize"
       id="filter13"
       x="0"
       y="0"
       width="1"
       height="1"><feComposite
         in2="SourceGraphic"
         operator="arithmetic"
         k1="0"
         k2="0.953458"
         result="composite1"
         id="feComposite12"
         k3="0"
         k4="0" /><feColorMatrix
         in="composite1"
         values="1"
         type="saturate"
         result="colormatrix1"
         id="feColorMatrix12" /><feFlood
         flood-opacity="1"
         flood-color="rgb(158,4,0)"
         result="flood1"
         id="feFlood12" /><feBlend
         in="flood1"
         in2="colormatrix1"
         mode="multiply"
         result="blend1"
         id="feBlend12" /><feBlend
         in2="blend1"
         mode="screen"
         result="blend2"
         id="feBlend13" /><feColorMatrix
         in="blend2"
         values="1"
         type="saturate"
         result="colormatrix2"
         id="feColorMatrix13" /><feComposite
         in="colormatrix2"
         in2="SourceGraphic"
         operator="in"
         result="composite2"
         id="feComposite13" /></filter><marker
       style="overflow:visible"
       id="RoundedArrow-3"
       refX="0"
       refY="0"
       orient="auto-start-reverse"
       inkscape:stockid="Rounded arrow"
       markerWidth="1"
       markerHeight="1"
       viewBox="0 0 1 1"
       inkscape:isstock="true"
       inkscape:collect="always"
       preserveAspectRatio="xMidYMid"><path
         transform="scale(0.7)"
         d="m -0.21114562,-4.1055728 6.42229122,3.21114561 a 1,1 90 0 1 0,1.78885438 L -0.21114562,4.1055728 A 1.236068,1.236068 31.717474 0 1 -2,3 v -6 a 1.236068,1.236068 148.28253 0 1 1.78885438,-1.1055728 z"
         style="fill:context-stroke;fill-rule:evenodd;stroke:none"
         id="path2-6" /></marker><marker
       style="overflow:visible"
       id="RoundedArrow-3-8"
       refX="0"
       refY="0"
       orient="auto-start-reverse"
       inkscape:stockid="Rounded arrow"
       markerWidth="1"
       markerHeight="1"
       viewBox="0 0 1 1"
       inkscape:isstock="true"
       inkscape:collect="always"
       preserveAspectRatio="xMidYMid"><path
         transform="scale(0.7)"
         d="m -0.21114562,-4.1055728 6.42229122,3.21114561 a 1,1 90 0 1 0,1.78885438 L -0.21114562,4.1055728 A 1.236068,1.236068 31.717474 0 1 -2,3 v -6 a 1.236068,1.236068 148.28253 0 1 1.78885438,-1.1055728 z"
         style="fill:context-stroke;fill-rule:evenodd;stroke:none"
         id="path2-6-7" /></marker><marker
       style="overflow:visible"
       id="RoundedArrow-9"
       refX="0"
       refY="0"
       orient="auto-start-reverse"
       inkscape:stockid="Rounded arrow"
       markerWidth="1"
       markerHeight="1"
       viewBox="0 0 1 1"
       inkscape:isstock="true"
       inkscape:collect="always"
       preserveAspectRatio="xMidYMid"><path
         transform="scale(0.7)"
         d="m -0.21114562,-4.1055728 6.42229122,3.21114561 a 1,1 90 0 1 0,1.78885438 L -0.21114562,4.1055728 A 1.236068,1.236068 31.717474 0 1 -2,3 v -6 a 1.236068,1.236068 148.28253 0 1 1.78885438,-1.1055728 z"
         style="fill:context-stroke;fill-rule:evenodd;stroke:none"
         id="path2-2" /></marker></defs><g
     inkscape:label="Layer 1"
     inkscape:groupmode="layer"
     id="layer1"
     transform="translate(-22.776392,-55.477004)"><g
       id="g10"
       transform="matrix(0.05975039,0,0,0.05975039,228.75811,145.54777)"><circle
         style="fill:#90dfaa"
         cx="252"
         cy="252"
         r="252"
         id="circle1" /><polygon
         style="fill:#ffffff"
         points="343.1,239.6 160.9,239.6 119.6,391.4 384.4,391.4 "
         id="polygon1" /><g
         id="g3-5">
	<path
   style="fill:#ced5e0"
   d="m 308.4,258.5 c -1.9,0.2 -3.6,1.2 -5.5,1.2 -1.1,0 -2.2,-0.2 -3.4,-0.4 -4.6,-0.9 -9.3,-1.4 -14,-1.4 -1.2,0 -2.5,0 -3.6,0.5 -0.9,0.4 -1.6,1.1 -2.6,1.4 -1.9,0.6 -4.2,-0.4 -6.3,-0.3 -3.9,0.1 -7.1,3.7 -11,3 -0.6,-2.2 -3.5,-3.6 -6,-3.2 -0.7,0.1 -1.5,0.4 -2.1,0.7 -0.9,0.3 -1.7,0.7 -2.6,1 -1.6,0.6 -3.3,1.3 -4.1,2.8 -0.4,0.8 -0.5,1.7 0,2.5 1.1,1.5 3.4,1.1 5,0.3 1.4,-0.8 2.8,-1.8 4.4,-2 0.6,2 -1.3,4.1 -3.6,4.8 -2.3,0.7 -4.8,0.3 -7.1,-0.1 0.7,1.2 -0.3,2.7 -1.7,3.2 -1.4,0.5 -3,0.3 -4.4,0.1 l -0.4,2.9 c -2.8,0.1 -5.1,2.9 -4.4,5.4 1.9,0.9 4.2,1.1 6.3,0.5 -0.9,-1.4 -0.2,-3.5 1.5,-4.1 0.9,-0.3 1.8,-0.3 2.8,-0.4 2.5,-0.1 4.9,-0.6 7.2,-1.5 l 0.8,2.6 c 2.1,0.7 4.5,1 6.7,0.9 v 1.8 l 5,1.3 c 0.1,0.5 0.2,0.6 0.3,1.2 -4.7,3.5 -11.6,-0.3 -17.4,1 -2.3,0.5 -4.6,1.9 -7,1.5 -1,-0.2 -1.9,-0.7 -2.9,-0.8 -2.8,-0.3 -4.9,2.5 -6,5 -0.8,2 -1.5,4.1 -1.3,6.2 0.2,2.1 1.3,4.3 3.4,5.2 3.7,1.7 9.4,-0.7 11.8,2.6 2.3,7.5 3.8,15.7 4.2,24.2 0.1,2.3 0.2,4.7 1.4,6.7 1.3,2.1 3.6,3.3 5.9,3.4 1.8,0.1 3.8,-0.5 4.9,-2 0.6,-0.8 0.9,-1.8 1.2,-2.8 0.8,-2.5 1.6,-5 2.4,-7.5 0.3,-0.9 0.6,-1.9 1.2,-2.6 0.6,-0.8 1.5,-1.3 2.1,-2.1 2.4,-3.2 -1,-8.2 0.4,-11.9 0.7,-2 2.6,-3.2 4,-4.6 1.4,-1.4 2.4,-3.8 1.2,-5.4 -0.5,-0.7 -1.2,-1.1 -1.9,-1.5 -4.2,-2.8 -7.3,-7.1 -8.3,-11.6 1.2,-0.7 2.9,0.1 3.7,1.2 0.9,1.1 1.3,2.5 2.3,3.6 0.7,0.7 1.5,1.2 2.4,1.7 1.8,1.1 3.9,2.1 6,1.5 1.3,-0.4 2.2,-1.5 1.9,-2.8 -0.4,-1.6 -2.3,-2.2 -3.9,-2.9 -1.5,-0.6 -3.1,-2.2 -2.3,-3.4 4.3,0.9 8.5,2.2 12.7,3.8 2.9,2.5 5.9,5 7.8,8.4 0.5,0.8 0.9,1.7 1.6,2.3 0.7,0.6 1.9,0.9 2.5,0.3 -0.2,-1.4 -0.3,-2.9 -0.5,-4.3 2.7,-0.2 4.7,-2.8 4.2,-5.4 2.9,0.1 5.8,2.1 6.9,4.8 0.1,0.1 0.2,0.2 0.3,0.2 4.4,3.7 9.6,-1.5 5.5,-5.4 l -0.1,-0.1 c 2.1,0.1 4.4,0.2 6,-0.9 0.6,-0.5 1.1,-1.2 1.1,-2 0.1,-1.9 -1.7,-3 -2.9,-4.4 -1.5,-1.5 -2.2,-3.5 -2.1,-5.3 2.4,-0.2 4.9,-0.2 7.5,0 -2.1,-2 -0.7,-5.2 -2.5,-7.4 -0.7,-0.8 -1.8,-1.4 -2.6,-2.1 -0.8,-0.7 -1.5,-1.9 -0.9,-2.6 l 8.7,-1.2 c 0.3,1 0.5,2.1 1.3,3 0.7,0.9 2.1,1.6 3.1,1.4 -2,-2.2 1.5,-5 -1.4,-7.1 -0.7,-0.5 -1.6,-0.8 -2.5,-0.9 -3.3,-0.2 -6.4,0.4 -9.7,-0.1 -3.4,-0.2 -7.1,-2.1 -10.6,-1.6 z"
   id="path1-65" />
	<path
   style="fill:#ced5e0"
   d="m 187.4,259.7 c -2.2,0 -4.5,0.5 -6.8,1.1 -1.9,0.5 -3.8,1 -5.7,1.5 -1,0.3 -2,0.5 -2.9,1.1 -0.8,0.6 -1.4,1.6 -1,2.3 2.9,0.7 6.1,0.9 9.3,0.7 0.7,1.5 -0.2,3.5 -1.3,5.1 -1.2,1.6 -2.7,3.2 -3.2,5.1 -0.3,1.1 -0.3,2.2 -0.2,3.2 0.2,1.9 0.5,3.8 1,5.7 0.7,2.6 1.8,5.2 3.7,7.3 0.6,0.7 1.3,1.2 1.8,2 0.3,0.6 0.5,1.2 1,1.6 0.6,0.4 1.4,0.3 2.2,0.4 2.2,0.3 3.4,2.3 4.8,4 1.3,1.7 3.7,3.1 5.9,1.9 0.7,3.1 -2.4,6.4 -2.5,9.7 -0.1,4 4,6.3 5.4,10 0.5,1.4 0.7,2.9 0.7,4.5 0.6,10 -0.7,21.4 4.3,30.4 1.7,-0.6 2.6,-2.9 2.7,-4.8 0.1,-1.9 -0.4,-3.7 -0.3,-5.5 0.3,-4 3.4,-7.3 6.2,-10.2 1.2,-1.2 2.5,-2.4 3.7,-3.7 -0.4,-2 1.5,-3.9 3.1,-5.3 3.4,-3.1 6,-7 7.7,-11.1 0.3,-0.7 0.5,-1.4 0.5,-2.1 -0.1,-1.5 -1.4,-2.5 -2.6,-3.3 C 219,307.5 213.1,304 207,301 c -0.1,-2.5 -3.4,-4 -5.8,-2.5 -1.6,1 -2.8,3 -4.7,3 -1.9,0 -2.5,-2.2 -2.8,-3.9 -0.3,-1.7 -1.5,-3.7 -3.4,-3.1 1.3,-1 1,-3.1 -0.4,-3.5 -1.4,-0.5 -3.3,0.5 -4.1,1.8 -0.8,-1.8 -0.8,-4 0,-5.9 3.3,-1.2 6.8,-1.7 10.2,-1.5 -0.2,1.2 -0.3,2.3 -0.5,3.5 2.9,0.1 2.6,-5.2 5.3,-6.2 0.9,-0.3 1.9,-0.1 2.8,-0.5 1.5,-0.7 1.8,-2.8 3.3,-3.5 0.6,-0.3 1.2,-0.2 1.8,-0.4 1.5,-0.4 2.5,-1.7 3.6,-2.7 1.8,-1.7 4.3,-3 5.6,-5 1.3,-2 0.6,-5.1 -1.9,-5.1 -2.2,0 -3.8,2.4 -6,2.8 -2.1,0.3 -3.8,-1.9 -2.6,-3.6 0.4,-0.6 1,-1 1.3,-1.6 0.9,-1.9 -1.7,-3.3 -4,-3.2 -2.3,0.1 -4.8,0.8 -6.6,-0.2 -0.7,-0.4 -1.2,-1.1 -2.1,-1.2 -1.4,-0.3 -2.8,0.8 -4.3,1.1 -1.4,0.4 -2.9,0.2 -4.3,0.1 z"
   id="path2-4" />
	<path
   style="fill:#ced5e0"
   d="m 323.5,311.4 c 0.2,1.1 0.8,2.3 1.5,3.3 1.6,-0.4 1.5,-0.4 3.2,-0.8 0,-0.1 0,-0.2 0,-0.4 0,-0.8 0.6,-1.5 1.4,-1.5 0.8,0 1.6,0.8 2,1.6 0.4,0.8 0.6,1.7 0.9,2.5 1,2.1 3.5,4 3.1,6.1 -0.1,0.5 -0.4,0.9 -0.4,1.4 0,0.8 0.6,1.5 1.1,2.2 1.5,2.3 1.4,5.7 -0.9,6.3 -0.4,0.1 -0.9,0.1 -1.2,0.4 -0.6,0.6 0.1,1.7 0.3,2.6 0.6,2.6 -2.5,4 -4.9,3 -2.4,-1.1 -4.1,-3.5 -5.5,-5.8 -0.4,-0.6 -0.7,-1.2 -1.3,-1.5 -0.7,-0.4 -1.6,-0.3 -2.3,-0.2 -1.7,0.3 -3.4,0.6 -5.1,1 -1.9,0.4 -4.2,0.6 -5.8,-0.9 -0.8,-0.7 -1.3,-1.7 -1.7,-2.7 -0.6,-1.2 -1.1,-2.5 -1,-3.8 0.1,-1.2 0.8,-2.1 1.6,-2.8 1.4,-1.3 3.3,-2.1 4.3,-3.7 0.3,-0.6 0.6,-1.3 1.2,-1.4 0.5,-0.1 1.1,0.1 1.5,-0.1 0.5,-0.2 0.7,-0.8 1.1,-1.2 0.6,-0.6 1.5,-0.7 2.3,-1 0.7,-0.3 1.3,-0.9 1.1,-1.6 0,-0.2 0,-0.3 0.2,-0.4 0.9,-0.3 1.9,-0.7 2.8,-1 0.2,-0.1 0.4,0.1 0.5,0.4 z"
   id="path3-2" />
</g><path
         style="fill:#ff7058"
         d="m 341.9,151 c 0,49.7 -89.9,148.8 -89.9,148.8 0,0 -89.9,-99.1 -89.9,-148.8 0,-49.7 40.3,-89.9 89.9,-89.9 49.6,0 89.9,40.2 89.9,89.9 z"
         id="path4-2" /><circle
         style="fill:#324a5e"
         cx="252"
         cy="143.10001"
         r="47.099998"
         id="circle4" /></g><g
       id="g9"
       transform="matrix(-0.59530006,0.05170635,-0.05170635,-0.59530006,107.64229,94.72629)"
       inkscape:transform-center-x="13.626016"
       inkscape:transform-center-y="-10.365866"><path
         d="m 24.4,24.4 c 3.2,-3.2 3.2,-8.4 0,-11.6 L 12.8,24.4 c 3.2,3.2 8.4,3.2 11.6,0"
         fill="#d0d0d0"
         id="path1-0" /><path
         d="m 27,27 c -4.3,4.3 -4.3,4.3 -6,2.6 -1.7,-1.7 -1.7,-1.7 2.6,-6 4.3,-4.3 4.3,-4.3 6,-2.6 1.7,1.7 1.7,1.7 -2.6,6"
         fill="#94989b"
         id="path2-8" /><path
         d="m 37.2,37.2 c -4.3,4.3 -4.3,4.3 -6,2.6 l -6.9,-6.9 c -1.7,-1.7 -1.7,-1.7 2.6,-6 4.3,-4.3 4.3,-4.3 6,-2.6 l 6.9,6.9 c 1.7,1.7 1.7,1.7 -2.6,6"
         fill="#7f8285"
         id="path3-9" /><path
         d="m 39.6,39.6 c -3.2,3.2 -3.2,3.2 -4.5,1.9 -1.3,-1.3 -1.3,-1.3 1.9,-4.5 3.2,-3.2 3.2,-3.2 4.5,-1.9 1.3,1.2 1.3,1.2 -1.9,4.5"
         fill="#646669"
         id="path4-3" /><path
         d="m 22.2,15 -7.1,-1.3 c 0,-0.3 -0.1,-0.5 -0.3,-0.7 -0.4,-0.4 -1.2,-0.4 -1.6,0 -0.4,0.4 -0.4,1.2 0,1.6 0.2,0.2 0.4,0.3 0.6,0.3 l 1.4,7.2 0.8,-0.8 h -0.2 l -1.2,-6.5 c 0.1,-0.1 0.2,-0.1 0.3,-0.2 C 15,14.5 15,14.5 15,14.4 l 6.5,1.2 v 0.2 L 22.2,15"
         fill="#94989b"
         id="path5-1" /><g
         fill="#3e4347"
         id="g7-4"><path
           d="m 25.756,37.336 1.485,-1.484 0.919,0.92 -1.485,1.484 z"
           id="path6-8" /><path
           d="m 35.866,27.24 1.485,-1.484 0.919,0.919 -1.485,1.485 z"
           id="path7-9" /></g><path
         d="m 31.1,42.6 c 0.2,0.2 0.2,0.5 0,0.7 L 12.5,61.9 c -0.2,0.2 -0.5,0.2 -0.7,0 L 2.1,52.2 C 2,52 2,51.7 2.1,51.5 L 20.7,32.9 c 0.2,-0.2 0.5,-0.2 0.7,0 l 9.7,9.7"
         fill="#428bc1"
         id="IconifyId17ecdb2904d178eab26149" /><use
         xlink:href="#IconifyId17ecdb2904d178eab26149"
         id="use7" /><path
         d="m 61.9,11.9 c 0.2,0.2 0.2,0.5 0,0.7 L 43.3,31.1 c -0.2,0.2 -0.5,0.2 -0.7,0 l -9.7,-9.7 c -0.2,-0.2 -0.2,-0.5 0,-0.7 L 51.5,2.1 C 51.7,2 52,2 52.1,2.1 l 9.8,9.8"
         fill="#428bc1"
         id="path8" /><g
         fill="#42ade2"
         id="g12"><path
           d="M 3.3,51.8 4,52.5 h 16.4 l 5.1,-5.1 H 7.7 Z"
           id="path9" /><path
           d="M 29.2,42.3 H 12.8 l -2.5,2.6 H 28 L 29.9,43 Z"
           id="path10" /><path
           d="m 34.1,21 0.7,0.7 h 16.4 l 5.1,-5.1 H 38.5 Z"
           id="path11-6" /><path
           d="M 60,11.5 H 43.6 l -2.5,2.6 h 17.7 l 1.9,-1.9 z"
           id="path12-7" /></g></g><g
       id="g9-7"
       transform="matrix(0.5975414,0,0,-0.5975414,227.77672,92.34167)"
       style="filter:url(#filter13)"><g
         id="g17"
         inkscape:transform-center-x="-14.809639"
         inkscape:transform-center-y="-13.330428"
         transform="rotate(-3.9669952,8.8560736,8.0702619)"><path
           d="m 24.4,24.4 c 3.2,-3.2 3.2,-8.4 0,-11.6 L 12.8,24.4 c 3.2,3.2 8.4,3.2 11.6,0"
           fill="#d0d0d0"
           id="path1-0-0" /><path
           d="m 27,27 c -4.3,4.3 -4.3,4.3 -6,2.6 -1.7,-1.7 -1.7,-1.7 2.6,-6 4.3,-4.3 4.3,-4.3 6,-2.6 1.7,1.7 1.7,1.7 -2.6,6"
           fill="#94989b"
           id="path2-8-5" /><path
           d="m 37.2,37.2 c -4.3,4.3 -4.3,4.3 -6,2.6 l -6.9,-6.9 c -1.7,-1.7 -1.7,-1.7 2.6,-6 4.3,-4.3 4.3,-4.3 6,-2.6 l 6.9,6.9 c 1.7,1.7 1.7,1.7 -2.6,6"
           fill="#7f8285"
           id="path3-9-1" /><path
           d="m 39.6,39.6 c -3.2,3.2 -3.2,3.2 -4.5,1.9 -1.3,-1.3 -1.3,-1.3 1.9,-4.5 3.2,-3.2 3.2,-3.2 4.5,-1.9 1.3,1.2 1.3,1.2 -1.9,4.5"
           fill="#646669"
           id="path4-3-1" /><path
           d="m 22.2,15 -7.1,-1.3 c 0,-0.3 -0.1,-0.5 -0.3,-0.7 -0.4,-0.4 -1.2,-0.4 -1.6,0 -0.4,0.4 -0.4,1.2 0,1.6 0.2,0.2 0.4,0.3 0.6,0.3 l 1.4,7.2 0.8,-0.8 h -0.2 l -1.2,-6.5 c 0.1,-0.1 0.2,-0.1 0.3,-0.2 C 15,14.5 15,14.5 15,14.4 l 6.5,1.2 v 0.2 L 22.2,15"
           fill="#94989b"
           id="path5-1-0" /><g
           fill="#3e4347"
           id="g7-4-3"><path
             d="m 25.756,37.336 1.485,-1.484 0.919,0.92 -1.485,1.484 z"
             id="path6-8-0" /><path
             d="m 35.866,27.24 1.485,-1.484 0.919,0.919 -1.485,1.485 z"
             id="path7-9-0" /></g><path
           d="m 31.1,42.6 c 0.2,0.2 0.2,0.5 0,0.7 L 12.5,61.9 c -0.2,0.2 -0.5,0.2 -0.7,0 L 2.1,52.2 C 2,52 2,51.7 2.1,51.5 L 20.7,32.9 c 0.2,-0.2 0.5,-0.2 0.7,0 l 9.7,9.7"
           fill="#428bc1"
           id="IconifyId17ecdb2904d178eab26149-4" /><use
           xlink:href="#IconifyId17ecdb2904d178eab26149-4"
           id="use7-5" /><path
           d="m 61.9,11.9 c 0.2,0.2 0.2,0.5 0,0.7 L 43.3,31.1 c -0.2,0.2 -0.5,0.2 -0.7,0 l -9.7,-9.7 c -0.2,-0.2 -0.2,-0.5 0,-0.7 L 51.5,2.1 C 51.7,2 52,2 52.1,2.1 l 9.8,9.8"
           fill="#428bc1"
           id="path8-4" /><g
           fill="#42ade2"
           id="g12-2"><path
             d="M 3.3,51.8 4,52.5 h 16.4 l 5.1,-5.1 H 7.7 Z"
             id="path9-4" /><path
             d="M 29.2,42.3 H 12.8 l -2.5,2.6 H 28 L 29.9,43 Z"
             id="path10-9" /><path
             d="m 34.1,21 0.7,0.7 h 16.4 l 5.1,-5.1 H 38.5 Z"
             id="path11-6-9" /><path
             d="M 60,11.5 H 43.6 l -2.5,2.6 h 17.7 l 1.9,-1.9 z"
             id="path12-7-9" /></g></g></g><path
       style="fill:#007563;fill-opacity:0.18204;stroke:#428bc1;stroke-width:0.794;stroke-linejoin:bevel;stroke-dasharray:none;stroke-opacity:1;marker-end:url(#RoundedArrow)"
       d="m 100.54167,87.312497 127,58.208333"
       id="path1"
       sodipodi:nodetypes="cc" /><path
       style="fill:#007563;fill-opacity:0.18204;stroke:#428bc1;stroke-width:0.794;stroke-linejoin:bevel;stroke-dasharray:2.382, 2.382;stroke-dashoffset:0;stroke-opacity:1;marker-end:url(#RoundedArrow-3)"
       d="m 100.54167,87.312497 7.40839,50.270833"
       id="path1-2"
       sodipodi:nodetypes="cc" /><path
       style="fill:#007563;fill-opacity:0.18204;stroke:#8a0400;stroke-width:0.794;stroke-linejoin:bevel;stroke-dasharray:none;stroke-opacity:1;marker-end:url(#RoundedArrow-9)"
       d="m 232.83334,87.312497 7.9375,52.916663"
       id="path1-3"
       sodipodi:nodetypes="cc" /><path
       style="fill:#007563;fill-opacity:0.18204;stroke:#8a0400;stroke-width:0.794;stroke-linejoin:bevel;stroke-dasharray:2.382, 2.382;stroke-dashoffset:0;stroke-opacity:1;marker-end:url(#RoundedArrow-3-8)"
       d="M 232.83334,87.312497 121.17931,140.22916"
       id="path1-2-7"
       sodipodi:nodetypes="cc" /><g
       id="g6"
       transform="translate(30.40295,3.1000112)"><circle
         style="fill:#90dfaa;stroke-width:0.0597504"
         cx="82.020836"
         cy="156.92206"
         r="15.057098"
         id="circle1-9" /><g
         id="g4"
         transform="translate(-42.838356,12.724157)"><polygon
           fill="#d9eeff"
           points="90.5,34.5 50,11.462 9.5,34.5 9.5,42.5 17.5,38.5 17.5,86.5 82.5,86.5 82.5,38.5 90.5,42.5 "
           id="polygon2"
           transform="matrix(0.13599144,0,0,0.13599144,121.52335,138.72126)" /><polygon
           fill="#ff7575"
           points="50,11.462 9.5,34.5 10,40.981 17.006,37.087 50,18.981 82.985,37.078 90,40.981 90.5,34.5 "
           id="polygon3"
           transform="matrix(0.13599144,0,0,0.13599144,121.52335,138.72126)" /><polygon
           fill="none"
           stroke="#40396e"
           stroke-linecap="round"
           stroke-linejoin="round"
           stroke-miterlimit="10"
           stroke-width="3"
           points="90.5,34.5 50,11.462 9.5,34.5 9.5,42.5 17.5,38.5 17.5,86.5 82.5,86.5 82.5,38.5 90.5,42.5 "
           id="polygon4"
           transform="matrix(0.13599144,0,0,0.13599144,121.52335,138.72126)" /><polygon
           fill="#40396e"
           points="82.985,37.078 84,41 50,22.506 16,41 17.044,37.069 50,19 "
           opacity="0.35"
           id="polygon5"
           transform="matrix(0.13599144,0,0,0.13599144,121.52335,138.72126)" /><rect
           width="8.431469"
           height="1.3599144"
           x="124.10719"
           y="148.92062"
           fill="#70bfff"
           opacity="0.35"
           id="rect5"
           style="stroke-width:0.135991" /><rect
           width="3.5357773"
           height="4.7597003"
           x="126.55503"
           y="145.52083"
           fill="#ff7575"
           id="rect6"
           style="stroke-width:0.135991" /><circle
           cx="129.20686"
           cy="148.03667"
           r="0.33997861"
           fill="#40396e"
           id="circle6"
           style="stroke-width:0.135991" /></g><g
         id="g5"
         transform="translate(-42.838356,12.759416)"><rect
           style="fill:#324a5e;fill-opacity:1;stroke:none;stroke-width:0.887663;stroke-linejoin:bevel;stroke-dasharray:2.66298, 2.66298;stroke-dashoffset:0;stroke-opacity:1"
           id="rect2-5"
           width="10.743"
           height="1.4720885"
           x="139.91025"
           y="119.24724"
           transform="matrix(0,1,1,0,0,0)" /><g
           id="g3"
           transform="matrix(0.75893179,0,0,0.75893179,30.128958,33.364706)"><path
             style="fill:#ff7058;stroke:none;stroke-width:0.0597958;stroke-dasharray:none"
             d="m 123.7673,139.06591 h -10.74312 c 0,0 0.0799,-2.72573 5.45145,-2.64583 5.37156,0.0799 5.29167,2.64583 5.29167,2.64583 z"
             id="path4-2-9"
             sodipodi:nodetypes="cczc" /><rect
             style="fill:#ff7058;fill-opacity:1;stroke:none;stroke-width:0.792622;stroke-linejoin:bevel;stroke-dasharray:2.37786, 2.37786;stroke-dashoffset:0;stroke-opacity:1"
             id="rect2"
             width="10.743"
             height="1.1737357"
             x="113.02419"
             y="-140.38882"
             transform="scale(1,-1)" /></g></g></g><text
       xml:space="preserve"
       style="font-style:italic;font-size:6.35px;line-height:1.1;font-family:'Nimbus Roman';-inkscape-font-specification:'Nimbus Roman,  Italic';writing-mode:lr-tb;direction:ltr;fill:#431d1d;fill-opacity:1;stroke:#431d1d;stroke-width:0.264583;stroke-linecap:round;stroke-linejoin:bevel;stroke-dasharray:none;stroke-dashoffset:0;stroke-opacity:1"
       x="94.986702"
       y="184.54581"
       id="text15-0"><tspan
         sodipodi:role="line"
         id="tspan15-6"
         x="94.986702"
         y="184.54581"
         style="font-style:normal;font-variant:normal;font-weight:normal;font-stretch:normal;font-family:'Nimbus Sans';-inkscape-font-specification:'Nimbus Sans';fill:#000000;fill-opacity:1;stroke:none;stroke-width:0.264583;stroke-dasharray:none;stroke-opacity:1">Base station</tspan></text><g
       id="g14"
       transform="translate(-5.2916672,-21.16667)"><text
         xml:space="preserve"
         style="font-style:italic;font-size:4.93889px;line-height:1.1;font-family:'Nimbus Roman';-inkscape-font-specification:'Nimbus Roman,  Italic';writing-mode:lr-tb;direction:ltr;white-space:pre;inline-size:52.9167;display:inline;fill:#431d1d;fill-opacity:1;stroke:#431d1d;stroke-width:0.264583;stroke-linecap:round;stroke-linejoin:bevel;stroke-dasharray:none;stroke-dashoffset:0;stroke-opacity:1"
         x="15.875001"
         y="142.875"
         id="text15-0-2"
         transform="translate(26.458335)"><tspan
           x="15.875001"
           y="142.875"
           id="tspan10"><tspan
             style="font-style:normal;font-family:'Nimbus Sans';-inkscape-font-specification:'Nimbus Sans';fill:#000000;stroke:none"
             id="tspan5">Base station (BS) </tspan></tspan><tspan
           x="15.875001"
           y="148.53497"
           id="tspan14"><tspan
             style="font-style:normal;font-family:'Nimbus Sans';-inkscape-font-specification:'Nimbus Sans';fill:#000000;stroke:none"
             id="tspan13">coordinates are </tspan></tspan><tspan
           x="15.875001"
           y="154.19494"
           id="tspan16"><tspan
             style="font-style:normal;font-family:'Nimbus Sans';-inkscape-font-specification:'Nimbus Sans';fill:#000000;stroke:none"
             id="tspan15">precisely known</tspan></tspan></text><g
         id="g13"
         transform="translate(6.9013938,91.590289)"><path
           style="fill:#303030;fill-opacity:1;stroke:none;stroke-width:0.529167;stroke-linejoin:bevel;stroke-dasharray:none;stroke-dashoffset:0;stroke-opacity:1"
           id="path12"
           sodipodi:type="arc"
           sodipodi:cx="26.458332"
           sodipodi:cy="52.916664"
           sodipodi:rx="5.2916665"
           sodipodi:ry="5.2916665"
           sodipodi:start="4.1662371"
           sodipodi:end="4.1609211"
           sodipodi:open="true"
           sodipodi:arc-type="arc"
           d="m 23.709826,48.394779 a 5.2916665,5.2916665 0 0 1 7.266735,1.767372 5.2916665,5.2916665 0 0 1 -1.757713,7.269077 5.2916665,5.2916665 0 0 1 -7.271407,-1.748051 5.2916665,5.2916665 0 0 1 1.738386,-7.273723" /><text
           xml:space="preserve"
           style="font-style:italic;font-size:6.35px;line-height:1.1;font-family:'Nimbus Roman';-inkscape-font-specification:'Nimbus Roman,  Italic';writing-mode:lr-tb;direction:ltr;white-space:pre;inline-size:52.9167;display:inline;fill:#ffffff;fill-opacity:1;stroke:#ffffff;stroke-width:0.264583;stroke-linecap:round;stroke-linejoin:bevel;stroke-dasharray:none;stroke-dashoffset:0;stroke-opacity:1"
           x="15.875001"
           y="142.875"
           id="text15-0-2-9"
           transform="translate(8.9736072,-87.773937)"><tspan
             x="15.875001"
             y="142.875"
             id="tspan18"><tspan
               style="font-style:normal;font-weight:bold;-inkscape-font-specification:'Nimbus Roman,  Bold'"
               id="tspan17">1</tspan></tspan></text></g></g><g
       id="g15"
       transform="translate(-5.2916672,-21.16667)"><g
         id="g13-7"
         transform="translate(6.9013938,121.64906)"><path
           style="fill:#303030;fill-opacity:1;stroke:none;stroke-width:0.529167;stroke-linejoin:bevel;stroke-dasharray:none;stroke-dashoffset:0;stroke-opacity:1"
           id="path12-0"
           sodipodi:type="arc"
           sodipodi:cx="26.458332"
           sodipodi:cy="52.916664"
           sodipodi:rx="5.2916665"
           sodipodi:ry="5.2916665"
           sodipodi:start="4.1662371"
           sodipodi:end="4.1609211"
           sodipodi:open="true"
           sodipodi:arc-type="arc"
           d="m 23.709826,48.394779 a 5.2916665,5.2916665 0 0 1 7.266735,1.767372 5.2916665,5.2916665 0 0 1 -1.757713,7.269077 5.2916665,5.2916665 0 0 1 -7.271407,-1.748051 5.2916665,5.2916665 0 0 1 1.738386,-7.273723" /><text
           xml:space="preserve"
           style="font-style:italic;font-size:6.35px;line-height:1.1;font-family:'Nimbus Roman';-inkscape-font-specification:'Nimbus Roman,  Italic';writing-mode:lr-tb;direction:ltr;white-space:pre;inline-size:52.9167;display:inline;fill:#ffffff;fill-opacity:1;stroke:#ffffff;stroke-width:0.264583;stroke-linecap:round;stroke-linejoin:bevel;stroke-dasharray:none;stroke-dashoffset:0;stroke-opacity:1"
           x="15.875001"
           y="142.875"
           id="text15-0-2-9-4"
           transform="translate(8.9736072,-87.773937)"><tspan
             x="15.875001"
             y="142.875"
             id="tspan20"><tspan
               style="font-style:normal;font-weight:bold;-inkscape-font-specification:'Nimbus Roman,  Bold'"
               id="tspan19">2</tspan></tspan></text></g><text
         xml:space="preserve"
         style="font-style:italic;font-size:4.93889px;line-height:1.1;font-family:'Nimbus Roman';-inkscape-font-specification:'Nimbus Roman,  Italic';writing-mode:lr-tb;direction:ltr;white-space:pre;inline-size:58.2083;display:inline;fill:#431d1d;fill-opacity:1;stroke:#431d1d;stroke-width:0.264583;stroke-linecap:round;stroke-linejoin:bevel;stroke-dasharray:none;stroke-dashoffset:0;stroke-opacity:1"
         x="15.875001"
         y="142.875"
         id="text15-0-2-1"
         transform="translate(26.458335,30.05877)"><tspan
           x="15.875001"
           y="142.875"
           id="tspan22"><tspan
             style="font-style:normal;font-family:'Nimbus Sans';-inkscape-font-specification:'Nimbus Sans';fill:#000000;stroke:none"
             id="tspan21">BS computes GNSS </tspan></tspan><tspan
           x="15.875001"
           y="148.53497"
           id="tspan24"><tspan
             style="font-style:normal;font-family:'Nimbus Sans';-inkscape-font-specification:'Nimbus Sans';fill:#000000;stroke:none"
             id="tspan23">measurements and either </tspan></tspan><tspan
           x="15.875001"
           y="154.19494"
           id="tspan26"><tspan
             style="font-style:normal;font-family:'Nimbus Sans';-inkscape-font-specification:'Nimbus Sans';fill:#000000;stroke:none"
             id="tspan25">sends it to rovers (OSR) </tspan></tspan><tspan
           x="15.875001"
           y="159.85492"
           id="tspan28"><tspan
             style="font-style:normal;font-family:'Nimbus Sans';-inkscape-font-specification:'Nimbus Sans';fill:#000000;stroke:none"
             id="tspan27">or computes range </tspan></tspan><tspan
           x="15.875001"
           y="165.51489"
           id="tspan30"><tspan
             style="font-style:normal;font-family:'Nimbus Sans';-inkscape-font-specification:'Nimbus Sans';fill:#000000;stroke:none"
             id="tspan29">corrections (SSR)</tspan></tspan></text></g><g
       id="g16"
       transform="translate(10.593837)"><g
         id="g13-7-1"
         transform="translate(112.58163,120.82001)"><path
           style="fill:#303030;fill-opacity:1;stroke:none;stroke-width:0.529167;stroke-linejoin:bevel;stroke-dasharray:none;stroke-dashoffset:0;stroke-opacity:1"
           id="path12-0-0"
           sodipodi:type="arc"
           sodipodi:cx="26.458332"
           sodipodi:cy="52.916664"
           sodipodi:rx="5.2916665"
           sodipodi:ry="5.2916665"
           sodipodi:start="4.1662371"
           sodipodi:end="4.1609211"
           sodipodi:open="true"
           sodipodi:arc-type="arc"
           d="m 23.709826,48.394779 a 5.2916665,5.2916665 0 0 1 7.266735,1.767372 5.2916665,5.2916665 0 0 1 -1.757713,7.269077 5.2916665,5.2916665 0 0 1 -7.271407,-1.748051 5.2916665,5.2916665 0 0 1 1.738386,-7.273723" /><text
           xml:space="preserve"
           style="font-style:italic;font-size:6.35px;line-height:1.1;font-family:'Nimbus Roman';-inkscape-font-specification:'Nimbus Roman,  Italic';writing-mode:lr-tb;direction:ltr;white-space:pre;inline-size:52.9167;display:inline;fill:#ffffff;fill-opacity:1;stroke:#ffffff;stroke-width:0.264583;stroke-linecap:round;stroke-linejoin:bevel;stroke-dasharray:none;stroke-dashoffset:0;stroke-opacity:1"
           x="15.875001"
           y="142.875"
           id="text15-0-2-9-4-4"
           transform="translate(8.9736072,-87.773937)"><tspan
             x="15.875001"
             y="142.875"
             id="tspan32"><tspan
               style="font-style:normal;font-weight:bold;-inkscape-font-specification:'Nimbus Roman,  Bold'"
               id="tspan31">3</tspan></tspan></text></g><text
         xml:space="preserve"
         style="font-style:italic;font-size:4.93889px;line-height:1.1;font-family:'Nimbus Roman';-inkscape-font-specification:'Nimbus Roman,  Italic';writing-mode:lr-tb;direction:ltr;white-space:pre;inline-size:58.2083;display:inline;fill:#431d1d;fill-opacity:1;stroke:#431d1d;stroke-width:0.264583;stroke-linecap:round;stroke-linejoin:bevel;stroke-dasharray:none;stroke-dashoffset:0;stroke-opacity:1"
         x="15.875001"
         y="142.875"
         id="text15-0-2-1-2"
         transform="translate(132.13857,29.229726)"><tspan
           x="15.875001"
           y="142.875"
           id="tspan34"><tspan
             style="font-style:normal;font-family:'Nimbus Sans';-inkscape-font-specification:'Nimbus Sans';fill:#000000;stroke:none"
             id="tspan33">BS transmits corrections </tspan></tspan><tspan
           x="15.875001"
           y="148.53497"
           id="tspan36"><tspan
             style="font-style:normal;font-family:'Nimbus Sans';-inkscape-font-specification:'Nimbus Sans';fill:#000000;stroke:none"
             id="tspan35">to rovers via e.g. internet, </tspan></tspan><tspan
           x="15.875001"
           y="154.19494"
           id="tspan38"><tspan
             style="font-style:normal;font-family:'Nimbus Sans';-inkscape-font-specification:'Nimbus Sans';fill:#000000;stroke:none"
             id="tspan37">using NTRIP protocol and </tspan></tspan><tspan
           x="15.875001"
           y="159.85492"
           id="tspan40"><tspan
             style="font-style:normal;font-family:'Nimbus Sans';-inkscape-font-specification:'Nimbus Sans';fill:#000000;stroke:none"
             id="tspan39">RTCM format</tspan></tspan></text></g><g
       id="g13-7-1-0"
       transform="translate(232.83334,84.666665)"><path
         style="fill:#303030;fill-opacity:1;stroke:none;stroke-width:0.529167;stroke-linejoin:bevel;stroke-dasharray:none;stroke-dashoffset:0;stroke-opacity:1"
         id="path12-0-0-4"
         sodipodi:type="arc"
         sodipodi:cx="26.458332"
         sodipodi:cy="52.916664"
         sodipodi:rx="5.2916665"
         sodipodi:ry="5.2916665"
         sodipodi:start="4.1662371"
         sodipodi:end="4.1609211"
         sodipodi:open="true"
         sodipodi:arc-type="arc"
         d="m 23.709826,48.394779 a 5.2916665,5.2916665 0 0 1 7.266735,1.767372 5.2916665,5.2916665 0 0 1 -1.757713,7.269077 5.2916665,5.2916665 0 0 1 -7.271407,-1.748051 5.2916665,5.2916665 0 0 1 1.738386,-7.273723" /><text
         xml:space="preserve"
         style="font-style:italic;font-size:6.35px;line-height:1.1;font-family:'Nimbus Roman';-inkscape-font-specification:'Nimbus Roman,  Italic';writing-mode:lr-tb;direction:ltr;white-space:pre;inline-size:52.9167;display:inline;fill:#ffffff;fill-opacity:1;stroke:#ffffff;stroke-width:0.264583;stroke-linecap:round;stroke-linejoin:bevel;stroke-dasharray:none;stroke-dashoffset:0;stroke-opacity:1"
         x="15.875001"
         y="142.875"
         id="text15-0-2-9-4-4-0"
         transform="translate(8.9736072,-87.773937)"><tspan
           x="15.875001"
           y="142.875"
           id="tspan42"><tspan
             style="font-style:normal;font-weight:bold;-inkscape-font-specification:'Nimbus Roman,  Bold'"
             id="tspan41">4</tspan></tspan></text></g><text
       xml:space="preserve"
       style="font-style:italic;font-size:4.93889px;line-height:1.1;font-family:'Nimbus Roman';-inkscape-font-specification:'Nimbus Roman,  Italic';writing-mode:lr-tb;direction:ltr;white-space:pre;inline-size:58.2083;display:inline;fill:#431d1d;fill-opacity:1;stroke:#431d1d;stroke-width:0.264583;stroke-linecap:round;stroke-linejoin:bevel;stroke-dasharray:none;stroke-dashoffset:0;stroke-opacity:1"
       x="15.875001"
       y="142.875"
       id="text15-0-2-1-2-9"
       transform="translate(252.39028,-6.923619)"><tspan
         x="15.875001"
         y="142.875"
         id="tspan44"><tspan
           style="font-style:normal;font-family:'Nimbus Sans';-inkscape-font-specification:'Nimbus Sans';fill:#000000;stroke:none"
           id="tspan43">Rover applies OSR/SSR </tspan></tspan><tspan
         x="15.875001"
         y="148.53497"
         id="tspan46"><tspan
           style="font-style:normal;font-family:'Nimbus Sans';-inkscape-font-specification:'Nimbus Sans';fill:#000000;stroke:none"
           id="tspan45">corrections to own </tspan></tspan><tspan
         x="15.875001"
         y="154.19494"
         id="tspan48"><tspan
           style="font-style:normal;font-family:'Nimbus Sans';-inkscape-font-specification:'Nimbus Sans';fill:#000000;stroke:none"
           id="tspan47">measurements to cancel </tspan></tspan><tspan
         x="15.875001"
         y="159.85492"
         id="tspan50"><tspan
           style="font-style:normal;font-family:'Nimbus Sans';-inkscape-font-specification:'Nimbus Sans';fill:#000000;stroke:none"
           id="tspan49">common errors</tspan></tspan></text><text
       xml:space="preserve"
       style="font-style:italic;font-size:6.35px;line-height:1.1;font-family:'Nimbus Roman';-inkscape-font-specification:'Nimbus Roman,  Italic';writing-mode:lr-tb;direction:ltr;fill:#431d1d;fill-opacity:1;stroke:#431d1d;stroke-width:0.264583;stroke-linecap:round;stroke-linejoin:bevel;stroke-dasharray:none;stroke-dashoffset:0;stroke-opacity:1"
       x="223.14191"
       y="184.54581"
       id="text15-0-0"><tspan
         sodipodi:role="line"
         id="tspan15-6-3"
         x="223.14191"
         y="184.54581"
         style="font-style:normal;font-variant:normal;font-weight:normal;font-stretch:normal;font-family:'Nimbus Sans';-inkscape-font-specification:'Nimbus Sans';fill:#000000;fill-opacity:1;stroke:none;stroke-width:0.264583;stroke-dasharray:none;stroke-opacity:1">Rover receiver</tspan></text><path
       style="fill:#000000;fill-opacity:1;stroke:#000000;stroke-width:0.529167;stroke-linejoin:bevel;stroke-dasharray:none;stroke-dashoffset:0;stroke-opacity:1;marker-end:url(#RoundedArrow)"
       d="m 131.76266,158.74999 93.13318,1e-5"
       id="path6"
       sodipodi:nodetypes="cc" /><text
       xml:space="preserve"
       style="font-size:8.46667px;line-height:1.1;font-family:'Nimbus Roman';-inkscape-font-specification:'Nimbus Roman, ';writing-mode:lr-tb;direction:ltr;fill:#428bc1;fill-opacity:1;stroke:none;stroke-width:0.529167;stroke-linejoin:bevel;stroke-dasharray:none;stroke-dashoffset:0;stroke-opacity:1"
       x="84.137527"
       y="109.00835"
       id="text7"><tspan
         sodipodi:role="line"
         id="tspan7"
         style="fill:#428bc1;fill-opacity:1;stroke:none;stroke-width:0.529167;stroke-opacity:1"
         x="84.137527"
         y="109.00835">PR<tspan
   style="font-size:65%;baseline-shift:sub;fill:#428bc1;fill-opacity:1;stroke:none;stroke-opacity:1"
   id="tspan8">b</tspan><tspan
   style="font-size:65%;baseline-shift:super;fill:#428bc1;fill-opacity:1;stroke:none;stroke-opacity:1"
   id="tspan9">1</tspan></tspan></text><text
       xml:space="preserve"
       style="font-size:8.46667px;line-height:1.1;font-family:'Nimbus Roman';-inkscape-font-specification:'Nimbus Roman, ';writing-mode:lr-tb;direction:ltr;fill:#8b0400;fill-opacity:0.678431;stroke:none;stroke-width:0.529167;stroke-linejoin:bevel;stroke-dasharray:none;stroke-dashoffset:0;stroke-opacity:1"
       x="187.85417"
       y="95.25"
       id="text7-4"><tspan
         sodipodi:role="line"
         id="tspan7-6"
         style="fill:#8b0400;fill-opacity:0.678431;stroke:none;stroke-width:0.529167;stroke-opacity:1"
         x="187.85417"
         y="95.25">PR<tspan
   style="font-size:65%;baseline-shift:sub;fill:#8b0400;fill-opacity:0.678431;stroke:none;stroke-opacity:1"
   id="tspan8-2">b</tspan><tspan
   style="font-size:65%;baseline-shift:super;fill:#8b0400;fill-opacity:0.678431;stroke:none;stroke-opacity:1"
   id="tspan9-67">2</tspan></tspan></text><text
       xml:space="preserve"
       style="font-size:8.46667px;line-height:1.1;font-family:'Nimbus Roman';-inkscape-font-specification:'Nimbus Roman, ';writing-mode:lr-tb;direction:ltr;fill:#8b0400;fill-opacity:0.678431;stroke:none;stroke-width:0.529167;stroke-linejoin:bevel;stroke-dasharray:none;stroke-dashoffset:0;stroke-opacity:1"
       x="240.77084"
       y="113.77083"
       id="text7-4-7"><tspan
         sodipodi:role="line"
         id="tspan7-6-2"
         style="fill:#8b0400;fill-opacity:0.678431;stroke:none;stroke-width:0.529167;stroke-opacity:1"
         x="240.77084"
         y="113.77083">PR<tspan
   style="font-size:65%;baseline-shift:sub;fill:#8b0400;fill-opacity:0.678431;stroke:none;stroke-opacity:1"
   id="tspan8-2-8">r</tspan><tspan
   style="font-size:65%;baseline-shift:super;fill:#8b0400;fill-opacity:0.678431;stroke:none;stroke-opacity:1"
   id="tspan9-67-2">2</tspan></tspan></text><text
       xml:space="preserve"
       style="font-size:8.46667px;line-height:1.1;font-family:'Nimbus Roman';-inkscape-font-specification:'Nimbus Roman, ';writing-mode:lr-tb;direction:ltr;fill:#428bc1;fill-opacity:1;stroke:none;stroke-width:0.529167;stroke-linejoin:bevel;stroke-dasharray:none;stroke-dashoffset:0;stroke-opacity:1"
       x="126.86455"
       y="91.773582"
       id="text7-8"><tspan
         sodipodi:role="line"
         id="tspan7-0"
         style="fill:#428bc1;fill-opacity:1;stroke:none;stroke-width:0.529167;stroke-opacity:1"
         x="126.86455"
         y="91.773582">PR<tspan
   style="font-size:65%;baseline-shift:sub;fill:#428bc1;fill-opacity:1;stroke:none;stroke-opacity:1"
   id="tspan8-5">r</tspan><tspan
   style="font-size:65%;baseline-shift:super;fill:#428bc1;fill-opacity:1;stroke:none;stroke-opacity:1"
   id="tspan9-6">1</tspan></tspan></text></g></svg>
