<?xml version="1.0" encoding="UTF-8" standalone="no"?>
<!-- Created with Inkscape (http://www.inkscape.org/) -->

<svg
   width="741.01544"
   height="516.50647"
   id="svg2"
   sodipodi:version="0.32"
   inkscape:version="1.4.4 (dcaf3e7d9e, 2026-05-05)"
   sodipodi:docname="phase_shift.svg"
   version="1.0"
   inkscape:output_extension="org.inkscape.output.svg.inkscape"
   xmlns:inkscape="http://www.inkscape.org/namespaces/inkscape"
   xmlns:sodipodi="http://sodipodi.sourceforge.net/DTD/sodipodi-0.dtd"
   xmlns="http://www.w3.org/2000/svg"
   xmlns:svg="http://www.w3.org/2000/svg"
   xmlns:rdf="http://www.w3.org/1999/02/22-rdf-syntax-ns#"
   xmlns:cc="http://creativecommons.org/ns#"
   xmlns:dc="http://purl.org/dc/elements/1.1/">
  <sodipodi:namedview
     id="base"
     pagecolor="#ffffff"
     bordercolor="#666666"
     borderopacity="1.0"
     gridtolerance="10000"
     guidetolerance="10"
     objecttolerance="10"
     inkscape:pageopacity="0.0"
     inkscape:pageshadow="2"
     inkscape:zoom="0.5"
     inkscape:cx="-1"
     inkscape:cy="73"
     inkscape:document-units="px"
     inkscape:current-layer="layer1"
     showgrid="true"
     inkscape:window-width="1920"
     inkscape:window-height="1011"
     inkscape:window-x="0"
     inkscape:window-y="0"
     inkscape:showpageshadow="2"
     inkscape:pagecheckerboard="0"
     inkscape:deskcolor="#d1d1d1"
     inkscape:window-maximized="1">
    <inkscape:grid
       id="grid1"
       units="px"
       originx="0"
       originy="2.8421709e-14"
       spacingx="1"
       spacingy="1"
       empcolor="#0099e5"
       empopacity="0.30196078"
       color="#0099e5"
       opacity="0.14901961"
       empspacing="5"
       enabled="true"
       visible="true" />
  </sodipodi:namedview>
  <defs
     id="defs4">
    <marker
       style="overflow:visible"
       id="ArrowWideRounded"
       refX="0"
       refY="0"
       orient="auto-start-reverse"
       inkscape:stockid="Wide, rounded arrow"
       markerWidth="1"
       markerHeight="1"
       viewBox="0 0 1 1"
       inkscape:isstock="true"
       inkscape:collect="always"
       preserveAspectRatio="xMidYMid">
      <path
         style="fill:none;stroke:context-stroke;stroke-width:1;stroke-linecap:round"
         d="M 3,-3 0,0 3,3"
         transform="rotate(180,0.125,0)"
         sodipodi:nodetypes="ccc"
         id="path3" />
    </marker>
    <marker
       style="overflow:visible"
       id="RoundedArrow"
       refX="0"
       refY="0"
       orient="auto-start-reverse"
       inkscape:stockid="Rounded arrow"
       markerWidth="1"
       markerHeight="1"
       viewBox="0 0 1 1"
       inkscape:isstock="true"
       inkscape:collect="always"
       preserveAspectRatio="xMidYMid">
      <path
         transform="scale(0.7)"
         d="m -0.21114562,-4.1055728 6.42229122,3.21114561 a 1,1 90 0 1 0,1.78885438 L -0.21114562,4.1055728 A 1.236068,1.236068 31.717474 0 1 -2,3 v -6 a 1.236068,1.236068 148.28253 0 1 1.78885438,-1.1055728 z"
         style="fill:context-stroke;fill-rule:evenodd;stroke:none"
         id="path8" />
    </marker>
    <marker
       inkscape:stockid="Arrow2Mstart"
       orient="auto"
       refY="0"
       refX="0"
       id="Arrow2Mstart"
       style="overflow:visible">
      <path
         id="path3239"
         style="font-size:12px;fill-rule:evenodd;stroke-width:0.625;stroke-linejoin:round"
         d="M 8.7185878,4.0337352 -2.2072895,0.01601326 8.7185884,-4.0017078 c -1.7454984,2.3720609 -1.7354408,5.6174519 -6e-7,8.035443 z"
         transform="scale(0.6)" />
    </marker>
    <marker
       inkscape:stockid="Arrow2Mend"
       orient="auto"
       refY="0"
       refX="0"
       id="Arrow2Mend"
       style="overflow:visible">
      <path
         id="path3242"
         style="font-size:12px;fill-rule:evenodd;stroke-width:0.625;stroke-linejoin:round"
         d="M 8.7185878,4.0337352 -2.2072895,0.01601326 8.7185884,-4.0017078 c -1.7454984,2.3720609 -1.7354408,5.6174519 -6e-7,8.035443 z"
         transform="scale(-0.6)" />
    </marker>
    <marker
       inkscape:stockid="Arrow1Mend"
       orient="auto"
       refY="0"
       refX="0"
       id="Arrow1Mend"
       style="overflow:visible">
      <path
         id="path3224"
         d="M 0,0 5,-5 -12.5,0 5,5 Z"
         style="fill-rule:evenodd;stroke:#000000;stroke-width:1pt;marker-start:none"
         transform="matrix(-0.4,0,0,-0.4,-4,0)" />
    </marker>
    <marker
       inkscape:stockid="Arrow1Lend"
       orient="auto"
       refY="0"
       refX="0"
       id="Arrow1Lend"
       style="overflow:visible">
      <path
         id="path3218"
         d="M 0,0 5,-5 -12.5,0 5,5 Z"
         style="fill-rule:evenodd;stroke:#000000;stroke-width:1pt;marker-start:none"
         transform="matrix(-0.8,0,0,-0.8,-10,0)" />
    </marker>
    <inkscape:perspective
       id="perspective10"
       inkscape:persp3d-origin="372.04724 : 350.78739 : 1"
       inkscape:vp_z="744.09448 : 526.18109 : 1"
       inkscape:vp_y="0 : 1000 : 0"
       inkscape:vp_x="0 : 526.18109 : 1"
       sodipodi:type="inkscape:persp3d" />
  </defs>
  <metadata
     id="metadata7">
    <rdf:RDF>
      <cc:Work
         rdf:about="">
        <dc:format>image/svg+xml</dc:format>
        <dc:type
           rdf:resource="http://purl.org/dc/dcmitype/StillImage" />
      </cc:Work>
    </rdf:RDF>
  </metadata>
  <g
     id="layer1"
     inkscape:groupmode="layer"
     inkscape:label="Layer 1"
     transform="translate(-2.8791364,-205.52475)">
    <g
       id="g8865">
      <path
         style="fill:#000000;fill-opacity:1;stroke:none;stroke-width:5;stroke-miterlimit:4;stroke-dasharray:none;stroke-dashoffset:0;stroke-opacity:1"
         d="m 14.53125,442.53125 v 5 h 722.75 v -5 z"
         id="path3210" />
      <path
         d="m 711.11697,432.94505 32.77763,12.05317 -32.77764,12.05316 c 5.2365,-7.11618 5.20633,-16.85235 1e-5,-24.10633 z"
         style="font-size:12px;fill-rule:evenodd;stroke-width:0.625;stroke-linejoin:round"
         id="path8871" />
    </g>
    <path
       style="fill:none;fill-opacity:1;stroke:#000000;stroke-width:0;stroke-miterlimit:4;stroke-dasharray:none;stroke-dashoffset:0;stroke-opacity:1"
       d="m 308,649.75236 v 72.27887"
       id="path7711" />
    <text
       xml:space="preserve"
       style="font-style:normal;font-weight:normal;line-height:0%;font-family:'Bitstream Vera Sans';fill:#000000;fill-opacity:1;stroke:none;stroke-width:1px;stroke-linecap:butt;stroke-linejoin:miter;stroke-opacity:1"
       x="331.31915"
       y="672.96478"
       id="text10372"><tspan
         sodipodi:role="line"
         id="tspan10374"
         x="331.31915"
         y="672.96478"
         style="font-style:italic;font-variant:normal;font-weight:normal;font-stretch:normal;font-size:40px;line-height:1.25;font-family:'Nimbus Roman';-inkscape-font-specification:'Nimbus Roman,  Italic'">ϕ</tspan></text>
    <g
       id="g11412"
       transform="translate(-256,92)">
      <path
         id="path11057"
         title="sin(x)"
         d="m 274.98,351.54012 c 14.44444,-30.99705 28.88889,-61.95776 43.33333,-89.12444 14.44445,-27.16667 28.88889,-50.46061 43.33334,-67.07623 14.44444,-16.61563 28.88889,-26.48019 43.33333,-28.43428 14.44444,-1.95409 28.88889,4.05109 43.33333,17.24195 14.44445,13.19085 28.88889,33.58018 43.33334,58.65274 14.44444,25.07256 28.88889,54.80198 43.33333,85.55363 14.44444,30.75165 28.88889,62.4665 43.33333,91.28969 14.44445,28.82319 28.88889,54.67764 43.33334,74.44191 14.44444,19.76426 28.88889,33.36226 43.33333,39.17817 14.44444,5.81592 28.88889,3.79351 43.33333,-5.7777 14.44445,-9.57121 28.88889,-26.71371 43.33334,-49.30426 14.44444,-22.59055 28.88889,-50.61231 43.33333,-80.6336 14.44444,-30.02128 28.88889,-61.99011 43.33333,-92.01526 14.44445,-30.02515 28.88889,-58.03237 43.33334,-80.63358 14.44444,-22.6012 28.88889,-39.7182 43.33333,-49.30422"
         style="fill:none;fill-opacity:1;stroke:#ff85c7;stroke-width:5;stroke-linecap:round;stroke-miterlimit:4;stroke-dasharray:none;stroke-dashoffset:0;stroke-opacity:1" />
      <path
         style="fill:none;fill-opacity:1;stroke:#ff1493;stroke-width:5;stroke-linecap:round;stroke-miterlimit:4;stroke-dasharray:none;stroke-dashoffset:0;stroke-opacity:1"
         d="m 274.98,527.46445 c 14.44444,-9.58602 28.88889,-26.7137 43.33333,-49.30424 14.44445,-22.59054 28.88889,-50.6123 43.33334,-80.63358 14.44444,-30.02128 28.88889,-61.99011 43.33333,-92.01526 14.44444,-30.02515 28.88889,-58.03238 43.33333,-80.63359 14.44445,-22.6012 28.88889,-39.71821 43.33334,-49.30424 14.44444,-9.58602 28.88889,-11.5783 43.33333,-5.77769 14.44444,5.80062 28.88889,19.42594 43.33333,39.1782 14.44445,19.75225 28.88889,45.62445 43.33334,74.4419 14.44444,28.81746 28.88889,60.53609 43.33333,91.28969 14.44444,30.7536 28.88889,60.47191 43.33333,85.55363 14.44445,25.08171 28.88889,45.44778 43.33334,58.65273 14.44444,13.20495 28.88889,19.18049 43.33333,17.24194 14.44444,-1.93854 28.88889,-11.83181 43.33333,-28.43428 14.44445,-16.60247 28.88889,-39.91707 43.33334,-67.07623 14.44444,-27.15917 28.88889,-58.12739 43.33333,-89.12443"
         title="sin(x)"
         id="path11380" />
    </g>
    <g
       id="g11452">
      <path
         style="fill:#000002;fill-opacity:1;stroke:none;stroke-width:5;stroke-linecap:square;stroke-miterlimit:4;stroke-dasharray:none;stroke-dashoffset:0;stroke-opacity:1"
         d="m 12.46875,209.65625 v 2.5 488.375 2.5 h 5 v -2.5 -488.375 -2.5 z"
         id="path10480" />
      <path
         d="m 2.8791364,238.30238 12.0531656,-32.77763 12.053163,32.77764 c -7.116182,-5.2365 -16.852355,-5.20633 -24.1063286,-1e-5 z"
         style="font-size:12px;fill-rule:evenodd;stroke-width:0.625;stroke-linejoin:round"
         id="path11458" />
    </g>
    <path
       style="fill:#ff1493;stroke:#000000;stroke-width:2;stroke-linecap:round;stroke-linejoin:bevel;stroke-dasharray:2, 6;stroke-dashoffset:0;stroke-opacity:1"
       d="m 290.87914,415.52475 v 250"
       id="path1" />
    <path
       style="fill:#ff1493;stroke:#000000;stroke-width:2;stroke-linecap:round;stroke-linejoin:bevel;stroke-dasharray:2, 6;stroke-dashoffset:0;stroke-opacity:1"
       d="m 399.87914,415.52475 v 250"
       id="path1-7" />
    <path
       style="fill:#ff1493;stroke:#000000;stroke-width:2;stroke-linecap:round;stroke-linejoin:bevel;stroke-dasharray:none;stroke-dashoffset:0;stroke-opacity:1;marker-start:url(#ArrowWideRounded);marker-end:url(#ArrowWideRounded)"
       d="m 292.87914,635.52475 h 105"
       id="path2"
       sodipodi:nodetypes="cc" />
  </g>
</svg>
